<svg width="101" height="101" viewBox="0 0 101 101" fill="none" xmlns="http://www.w3.org/2000/svg">
<path d="M21.6431 66.371V53.8242L49.2004 16.9837L45.4702 12.0721L48.1389 10.0996L51.2216 14.2765L54.3701 10.0996L56.973 12.0721L53.3086 16.9837L80.8002 53.8209V66.371H21.6431ZM37.6779 63.1053H64.7653L51.2216 44.2459L37.6779 63.1053Z" fill="white"/>
<path d="M33.4328 71.5388H35.2948V78.7628H33.4328V71.5388ZM34.7768 74.3528H37.0168V75.8788H34.7768V74.3528ZM29.7088 72.2808H31.6968C31.6968 75.7248 29.5408 78.0628 25.6768 79.0708L24.9488 77.6008C28.1268 76.8028 29.7088 75.1508 29.7088 73.2048V72.2808ZM25.5648 72.2808H30.8288V73.7508H25.5648V72.2808ZM26.8808 79.2808H35.2948V84.3628H26.8808V79.2808ZM33.4608 80.7508H28.7148V82.8928H33.4608V80.7508ZM40.9777 72.2108H42.5317V73.3728C42.5317 75.9768 41.3697 78.2588 38.8217 79.1128L37.8557 77.6148C40.0677 76.9008 40.9777 75.1508 40.9777 73.3728V72.2108ZM41.3697 72.2108H42.8677V73.2888C42.8677 75.0108 43.7077 76.6068 45.7657 77.2648L44.7997 78.7208C42.4057 77.8948 41.3697 75.8088 41.3697 73.2888V72.2108ZM46.9557 71.5388H48.8177V79.1268H46.9557V71.5388ZM44.4217 79.4628C47.1657 79.4628 48.8597 80.4008 48.8597 81.9828C48.8597 83.5788 47.1657 84.5028 44.4217 84.5028C41.6777 84.5028 39.9837 83.5788 39.9837 81.9828C39.9837 80.4008 41.6777 79.4628 44.4217 79.4628ZM44.4217 80.9048C42.7417 80.9048 41.8457 81.2548 41.8457 81.9828C41.8457 82.7108 42.7417 83.0748 44.4217 83.0748C46.1157 83.0748 47.0117 82.7108 47.0117 81.9828C47.0117 81.2548 46.1157 80.9048 44.4217 80.9048ZM44.5897 73.8908H47.2217V75.4028H44.5897V73.8908ZM54.7386 72.3508H56.5446C56.5446 75.7108 55.2006 78.0488 51.6446 79.5188L50.7766 78.1888C53.7306 77.0268 54.7386 75.3188 54.7386 72.9528V72.3508ZM51.4486 72.3508H55.3126V73.8348H51.4486V72.3508ZM54.8226 74.7168V75.9768L51.1406 76.3828L50.9166 74.9128L54.8226 74.7168ZM60.1286 71.5388H61.8926V79.1268H60.1286V71.5388ZM58.5746 74.5488H60.6326V76.0608H58.5746V74.5488ZM57.3006 71.7768H59.0366V79.0288H57.3006V71.7768ZM53.1146 79.6308H61.8926V84.3628H53.1146V79.6308ZM60.0726 81.0868H54.9486V82.8928H60.0726V81.0868ZM64.2855 72.5048H71.2715V74.0028H64.2855V72.5048ZM64.1455 78.8328L63.9495 77.3208C66.1195 77.3208 69.1995 77.2788 71.7475 76.9428L71.8875 78.2868C69.2835 78.7768 66.2875 78.8328 64.1455 78.8328ZM65.3075 73.6948H67.0855V78.0208H65.3075V73.6948ZM68.4435 73.6948H70.2495V78.0208H68.4435V73.6948ZM72.6295 71.5528H74.5055V79.3508H72.6295V71.5528ZM70.1375 79.6028C72.8815 79.6028 74.5895 80.4988 74.5895 82.0388C74.5895 83.6068 72.8815 84.5028 70.1375 84.5028C67.3935 84.5028 65.7135 83.6068 65.7135 82.0388C65.7135 80.4988 67.3935 79.6028 70.1375 79.6028ZM70.1375 81.0168C68.4435 81.0168 67.5615 81.3528 67.5615 82.0388C67.5615 82.7528 68.4435 83.0888 70.1375 83.0888C71.8455 83.0888 72.7275 82.7528 72.7275 82.0388C72.7275 81.3528 71.8455 81.0168 70.1375 81.0168Z" fill="white"/>
<circle cx="50.5" cy="50.5" r="50" stroke="white"/>
</svg>
